<!DOCTYPE svg PUBLIC "-//W3C//DTD SVG 1.1//EN" "http://www.w3.org/Graphics/SVG/1.1/DTD/svg11.dtd">
<!-- Uploaded to: SVG Repo, www.svgrepo.com, Transformed by: SVG Repo Mixer Tools -->
<svg version="1.1" id="Layer_1" xmlns="http://www.w3.org/2000/svg" xmlns:xlink="http://www.w3.org/1999/xlink" width="64px" height="64px" viewBox="0 0 64.00 64.00" enable-background="new 0 0 64 64" xml:space="preserve" fill="#DC8D1E">
<g id="SVGRepo_bgCarrier" stroke-width="0"/>
<g id="SVGRepo_tracerCarrier" stroke-linecap="round" stroke-linejoin="round" stroke="#CCCCCC" stroke-width="12.8"> <line fill="none" stroke="#DC8D1E" stroke-width="3.2" stroke-miterlimit="10" x1="25" y1="24" x2="47" y2="24"/> <line fill="none" stroke="#DC8D1E" stroke-width="3.2" stroke-miterlimit="10" x1="25" y1="34" x2="47" y2="34"/> <line fill="none" stroke="#DC8D1E" stroke-width="3.2" stroke-miterlimit="10" x1="25" y1="44" x2="47" y2="44"/> <line fill="none" stroke="#DC8D1E" stroke-width="3.2" stroke-miterlimit="10" x1="25" y1="54" x2="47" y2="54"/> <line fill="none" stroke="#DC8D1E" stroke-width="3.2" stroke-miterlimit="10" x1="21" y1="24" x2="17" y2="24"/> <line fill="none" stroke="#DC8D1E" stroke-width="3.2" stroke-miterlimit="10" x1="21" y1="34" x2="17" y2="34"/> <line fill="none" stroke="#DC8D1E" stroke-width="3.2" stroke-miterlimit="10" x1="21" y1="44" x2="17" y2="44"/> <line fill="none" stroke="#DC8D1E" stroke-width="3.2" stroke-miterlimit="10" x1="21" y1="54" x2="17" y2="54"/> <polyline fill="none" stroke="#DC8D1E" stroke-width="3.2" stroke-miterlimit="10" points="23,8 10,8 10,63 54,63 54,8 41,8 "/> <polygon fill="none" stroke="#DC8D1E" stroke-width="3.2" stroke-miterlimit="10" points="36,5 36,1 28,1 28,5 24,5 22,13 42,13 40,5 "/> </g>
<g id="SVGRepo_iconCarrier"> <line fill="none" stroke="#DC8D1E" stroke-width="3.2" stroke-miterlimit="10" x1="25" y1="24" x2="47" y2="24"/> <line fill="none" stroke="#DC8D1E" stroke-width="3.2" stroke-miterlimit="10" x1="25" y1="34" x2="47" y2="34"/> <line fill="none" stroke="#DC8D1E" stroke-width="3.2" stroke-miterlimit="10" x1="25" y1="44" x2="47" y2="44"/> <line fill="none" stroke="#DC8D1E" stroke-width="3.2" stroke-miterlimit="10" x1="25" y1="54" x2="47" y2="54"/> <line fill="none" stroke="#DC8D1E" stroke-width="3.2" stroke-miterlimit="10" x1="21" y1="24" x2="17" y2="24"/> <line fill="none" stroke="#DC8D1E" stroke-width="3.2" stroke-miterlimit="10" x1="21" y1="34" x2="17" y2="34"/> <line fill="none" stroke="#DC8D1E" stroke-width="3.2" stroke-miterlimit="10" x1="21" y1="44" x2="17" y2="44"/> <line fill="none" stroke="#DC8D1E" stroke-width="3.2" stroke-miterlimit="10" x1="21" y1="54" x2="17" y2="54"/> <polyline fill="none" stroke="#DC8D1E" stroke-width="3.2" stroke-miterlimit="10" points="23,8 10,8 10,63 54,63 54,8 41,8 "/> <polygon fill="none" stroke="#DC8D1E" stroke-width="3.2" stroke-miterlimit="10" points="36,5 36,1 28,1 28,5 24,5 22,13 42,13 40,5 "/> </g>
</svg>